<svg version="1.1" x="0px" y="0px" style="fill: rgb(252, 181, 2);"
	 width="13px" height="13px" viewBox="0 0 475.075 475.075" style="enable-background:new 0 0 475.075 475.075;"
	 xml:space="preserve">
<g>
	<path d="M475.075,186.573c0-7.043-5.328-11.42-15.992-13.135L315.766,152.6L251.529,22.694c-3.614-7.804-8.281-11.704-13.99-11.704
		c-5.708,0-10.372,3.9-13.989,11.704L159.31,152.6L15.986,173.438C5.33,175.153,0,179.53,0,186.573c0,3.999,2.38,8.567,7.139,13.706
		l103.924,101.068L86.51,444.096c-0.381,2.666-0.57,4.575-0.57,5.712c0,3.997,0.998,7.374,2.996,10.136
		c1.997,2.766,4.993,4.142,8.992,4.142c3.428,0,7.233-1.137,11.42-3.423l128.188-67.386l128.197,67.386
		c4.004,2.286,7.81,3.423,11.416,3.423c3.819,0,6.715-1.376,8.713-4.142c1.992-2.758,2.991-6.139,2.991-10.136
		c0-2.471-0.096-4.374-0.287-5.712l-24.555-142.749l103.637-101.068C472.604,195.33,475.075,190.76,475.075,186.573z"/>
</g><g></g><g></g><g></g><g></g><g></g><g></g><g></g><g></g><g></g><g></g><g></g><g></g><g></g><g></g><g></g></svg>


<svg version="1.1" x="0px" y="0px" style="fill: rgb(252, 181, 2);"
	 width="13px" height="13px" viewBox="0 0 475.075 475.075" style="enable-background:new 0 0 475.075 475.075;"
	 xml:space="preserve">
<g>
	<path d="M475.075,186.573c0-7.043-5.328-11.42-15.992-13.135L315.766,152.6L251.529,22.694c-3.614-7.804-8.281-11.704-13.99-11.704
		c-5.708,0-10.372,3.9-13.989,11.704L159.31,152.6L15.986,173.438C5.33,175.153,0,179.53,0,186.573c0,3.999,2.38,8.567,7.139,13.706
		l103.924,101.068L86.51,444.096c-0.381,2.666-0.57,4.575-0.57,5.712c0,3.997,0.998,7.374,2.996,10.136
		c1.997,2.766,4.993,4.142,8.992,4.142c3.428,0,7.233-1.137,11.42-3.423l128.188-67.386l128.197,67.386
		c4.004,2.286,7.81,3.423,11.416,3.423c3.819,0,6.715-1.376,8.713-4.142c1.992-2.758,2.991-6.139,2.991-10.136
		c0-2.471-0.096-4.374-0.287-5.712l-24.555-142.749l103.637-101.068C472.604,195.33,475.075,190.76,475.075,186.573z"/>
</g><g></g><g></g><g></g><g></g><g></g><g></g><g></g><g></g><g></g><g></g><g></g><g></g><g></g><g></g><g></g></svg>


<svg version="1.1" x="0px" y="0px" style="fill: rgb(252, 181, 2);"
	 width="13px" height="13px" viewBox="0 0 475.075 475.075" style="enable-background:new 0 0 475.075 475.075;"
	 xml:space="preserve">
<g>
	<path d="M475.075,186.573c0-7.043-5.328-11.42-15.992-13.135L315.766,152.6L251.529,22.694c-3.614-7.804-8.281-11.704-13.99-11.704
		c-5.708,0-10.372,3.9-13.989,11.704L159.31,152.6L15.986,173.438C5.33,175.153,0,179.53,0,186.573c0,3.999,2.38,8.567,7.139,13.706
		l103.924,101.068L86.51,444.096c-0.381,2.666-0.57,4.575-0.57,5.712c0,3.997,0.998,7.374,2.996,10.136
		c1.997,2.766,4.993,4.142,8.992,4.142c3.428,0,7.233-1.137,11.42-3.423l128.188-67.386l128.197,67.386
		c4.004,2.286,7.81,3.423,11.416,3.423c3.819,0,6.715-1.376,8.713-4.142c1.992-2.758,2.991-6.139,2.991-10.136
		c0-2.471-0.096-4.374-0.287-5.712l-24.555-142.749l103.637-101.068C472.604,195.33,475.075,190.76,475.075,186.573z"/>
</g><g></g><g></g><g></g><g></g><g></g><g></g><g></g><g></g><g></g><g></g><g></g><g></g><g></g><g></g><g></g></svg>


<svg version="1.1" x="0px" y="0px" style="fill: rgb(252, 181, 2);"
	 width="13px" height="13px" viewBox="0 0 475.044 475.044" style="enable-background:new 0 0 475.044 475.044;"
	 xml:space="preserve">
<g>
	<path d="M474.487,183.276c-1.711-5.236-6.852-8.52-15.41-9.851l-143.323-20.839L251.52,22.681c-4-7.804-8.661-11.704-13.989-11.704
		c-5.519,0-10.183,3.9-13.988,11.704l-64.241,129.905L15.978,173.425c-8.564,1.332-13.704,4.615-15.415,9.851
		c-1.709,5.236,0.478,10.898,6.567,16.989l103.924,101.068L86.501,444.082c-0.95,6.286-0.381,11.173,1.715,14.702
		c2.092,3.524,5.33,5.283,9.707,5.283c3.237,0,7.043-1.14,11.42-3.433l128.194-67.382l128.19,67.382
		c4.377,2.286,8.186,3.433,11.423,3.433c4.381,0,7.622-1.759,9.709-5.283c2.088-3.529,2.659-8.416,1.708-14.702l-24.551-142.749
		l103.63-101.068C473.93,194.174,476.212,188.512,474.487,183.276z M338.597,275.065l-13.99,13.421l3.43,18.843l17.128,101.357
		l-90.786-47.965l-16.848-8.856V76.927l45.395,91.933l8.559,17.128l18.85,2.856l101.642,14.844L338.597,275.065z"/>
</g><g></g><g></g><g></g><g></g><g></g><g></g><g></g><g></g><g></g><g></g><g></g><g></g><g></g><g></g><g></g>
</svg>

<svg version="1.1" x="0px" y="0px" style="fill: rgb(252, 181, 2);"
	 width="13" height="13px" viewBox="0 0 475.075 475.075" style="enable-background:new 0 0 475.075 475.075;"
	 xml:space="preserve">
<g>
	<path d="M475.075,186.573c0-7.043-5.328-11.42-15.992-13.135L315.766,152.6L251.529,22.694c-3.614-7.804-8.281-11.704-13.99-11.704
		c-5.708,0-10.372,3.9-13.989,11.704L159.31,152.6L15.986,173.438C5.33,175.153,0,179.53,0,186.573c0,3.999,2.38,8.567,7.139,13.706
		l103.924,101.068L86.51,444.096c-0.381,2.666-0.57,4.575-0.57,5.712c0,3.997,0.998,7.374,2.996,10.136
		c1.997,2.766,4.993,4.142,8.992,4.142c3.428,0,7.233-1.137,11.42-3.423l128.188-67.386l128.194,67.379
		c4,2.286,7.806,3.43,11.416,3.43c7.812,0,11.714-4.75,11.714-14.271c0-2.471-0.096-4.374-0.287-5.716l-24.551-142.744
		l103.634-101.069C472.604,195.33,475.075,190.76,475.075,186.573z M324.619,288.5l20.551,120.2l-107.634-56.821L129.614,408.7
		l20.843-120.2l-87.365-84.799l120.484-17.7l53.959-109.064l53.957,109.064l120.494,17.7L324.619,288.5z"/>
</g><g></g><g></g><g></g><g></g><g></g><g></g><g></g><g></g><g></g><g></g><g></g><g></g><g></g><g></g><g></g>
</svg>
