<?xml version="1.0" encoding="iso-8859-1"?>
<!-- Generator: Adobe Illustrator 19.1.0, SVG Export Plug-In . SVG Version: 6.00 Build 0)  -->
<svg version="1.1" id="Capa_1" width="100px" height="100px" x="0px" y="0px"
	 viewBox="0 0 489.2 489.2" style="enable-background:new 0 0 489.2 489.2;" xml:space="preserve">
<g>
	<g>
		<path d="M472,295.25v-0.4H297c-32.5,0-58.8-26.3-58.8-58.8l0,0v-106c0-7.3-5.9-13.2-13.2-13.2h-56c-13.5,0-25.1,6.7-32.5,16.5
			c-0.6,0.6-1.2,1.8-1.8,2.4l-47.2,71.1l-27.5,4.3c-22.1,0-39.8,17.8-39.8,39.8v58.2c-11,1.2-20.2,11-20.2,22.7v28.8
			c0,12.3,9.8,22.7,22.7,22.7h28.2c7.3,25.2,30.6,44.2,58.8,44.2s51.5-18.4,58.8-44.1h73.8h74.1c7.4,25.1,30.6,44.1,58.8,44.1
			c28.2,0,51.5-18.4,58.8-44.1h32.5c12.3,0,22.7-9.8,22.7-22.7v-43.4C489.2,306.95,481.8,297.75,472,295.25z M109.7,396.85
			c-16.5,0-30.6-14.1-30.6-30.6s13.5-30.6,30.6-30.6c16.5,0,30.6,14.1,30.6,30.6C140.3,382.75,126.8,396.85,109.7,396.85z
			 M375.2,396.85c-17.2,0-30.6-14.1-30.6-30.6s13.5-30.6,30.6-30.6c16.5,0,30.6,14.1,30.6,30.6
			C405.9,382.75,392.4,396.85,375.2,396.85z"/>
		<path d="M306.2,260.85h149.7c17.8,0,32.2-15.1,32.2-33.6v-132c0-18.5-14.4-33.6-32.2-33.6H306.2c-17.8,0-32.2,15.1-32.2,33.6v13.3
			v6v112.8C274,245.75,288.4,260.85,306.2,260.85z M454.2,227.15H426l28.2-28.2V227.15z M454.3,164.05l-63.1,63.1h-27.7l90.9-90.9
			L454.3,164.05z M307.7,114.75c0-0.1,0-0.2,0-0.3l0.1-19.2H335l-27.3,27.3L307.7,114.75L307.7,114.75z M307.7,157.55l62.2-62.2
			h27.7l-89.9,89.9L307.7,157.55L307.7,157.55z M307.7,220.15l124.9-124.8h21.7v6l-125.8,125.8h-20.8V220.15z"/>
	</g>
</g><g></g><g></g><g></g><g></g><g></g><g></g><g></g><g></g><g></g><g></g><g></g><g></g><g></g><g></g><g></g>
</svg>
